<svg width="515" height="515" viewBox="0 0 515 515" fill="none" xmlns="http://www.w3.org/2000/svg">
<rect width="515" height="515" rx="126" fill="#2B2B2B"/>
<rect width="515" height="515" rx="126" fill="url(#paint0_linear_295_2)" fill-opacity="0.2"/>
<path d="M88.441 188L65.472 115.9H77.317L91.222 161.014C91.7713 162.525 92.252 164.31 92.664 166.37C93.076 168.43 93.4537 170.421 93.797 172.344C94.209 174.198 94.518 175.674 94.724 176.773L91.737 176.67C92.767 173.031 93.5567 170.215 94.106 168.224C94.724 166.233 95.2047 164.722 95.548 163.692C95.8913 162.593 96.2003 161.666 96.475 160.911L109.453 128.363H119.444L132.01 160.911C132.697 162.559 133.28 164.207 133.761 165.855C134.31 167.434 134.791 169.048 135.203 170.696C135.615 172.275 136.061 173.958 136.542 175.743L133.864 176.464C134.207 174.61 134.448 173.168 134.585 172.138C134.791 171.039 134.963 170.147 135.1 169.46C135.237 168.773 135.375 168.121 135.512 167.503C135.649 166.816 135.855 165.958 136.13 164.928C136.473 163.898 136.92 162.49 137.469 160.705L151.168 115.9H163.116L140.147 188H132.422L113.367 142.886L114.294 143.298L95.96 188H88.441ZM195.633 189.03C190.071 189.03 185.127 187.863 180.801 185.528C176.544 183.125 173.179 179.863 170.707 175.743C168.304 171.623 167.102 166.885 167.102 161.529C167.102 157.272 167.789 153.392 169.162 149.89C170.536 146.388 172.424 143.367 174.827 140.826C177.299 138.217 180.218 136.225 183.582 134.852C187.016 133.41 190.724 132.689 194.706 132.689C198.208 132.689 201.47 133.376 204.491 134.749C207.513 136.054 210.122 137.873 212.319 140.208C214.585 142.543 216.302 145.324 217.469 148.551C218.705 151.71 219.289 155.177 219.22 158.954L219.117 163.486H174.93L172.561 155.04H209.95L208.405 156.791V154.319C208.199 152.053 207.444 150.027 206.139 148.242C204.835 146.457 203.187 145.049 201.195 144.019C199.204 142.989 197.041 142.474 194.706 142.474C190.998 142.474 187.874 143.195 185.333 144.637C182.793 146.01 180.87 148.07 179.565 150.817C178.261 153.495 177.608 156.825 177.608 160.808C177.608 164.585 178.398 167.881 179.977 170.696C181.557 173.443 183.788 175.571 186.672 177.082C189.556 178.593 192.887 179.348 196.663 179.348C199.341 179.348 201.813 178.902 204.079 178.009C206.414 177.116 208.92 175.503 211.598 173.168L216.954 180.687C215.306 182.335 213.281 183.777 210.877 185.013C208.543 186.249 206.036 187.245 203.358 188C200.749 188.687 198.174 189.03 195.633 189.03ZM262.783 188V152.774C262.783 149.753 261.684 147.315 259.487 145.461C257.358 143.538 254.646 142.577 251.35 142.577C248.329 142.577 245.582 143.195 243.11 144.431C240.707 145.667 238.509 147.555 236.518 150.096L229.617 143.195C232.844 139.693 236.312 137.084 240.02 135.367C243.797 133.65 247.848 132.792 252.174 132.792C256.294 132.792 259.865 133.479 262.886 134.852C265.907 136.225 268.242 138.251 269.89 140.929C271.538 143.538 272.362 146.731 272.362 150.508V188H262.783ZM246.612 189.03C243.11 189.03 239.986 188.343 237.239 186.97C234.492 185.597 232.295 183.708 230.647 181.305C229.068 178.833 228.278 175.949 228.278 172.653C228.278 169.769 228.793 167.228 229.823 165.031C230.853 162.834 232.364 161.014 234.355 159.572C236.415 158.13 238.956 157.031 241.977 156.276C245.067 155.521 248.603 155.143 252.586 155.143H267.624L266.697 163.589H251.247C249.187 163.589 247.333 163.795 245.685 164.207C244.106 164.55 242.732 165.134 241.565 165.958C240.466 166.713 239.642 167.64 239.093 168.739C238.544 169.769 238.269 171.005 238.269 172.447C238.269 173.958 238.647 175.297 239.402 176.464C240.157 177.563 241.187 178.421 242.492 179.039C243.797 179.657 245.307 179.966 247.024 179.966C249.496 179.966 251.831 179.554 254.028 178.73C256.294 177.837 258.285 176.636 260.002 175.125C261.787 173.614 263.161 171.932 264.122 170.078L266.594 176.979C265.152 179.382 263.367 181.477 261.238 183.262C259.109 185.047 256.809 186.455 254.337 187.485C251.865 188.515 249.29 189.03 246.612 189.03ZM285.77 188V133.925H296.482V150.92L295.452 146.8C296.208 144.191 297.478 141.822 299.263 139.693C301.117 137.564 303.212 135.882 305.546 134.646C307.95 133.41 310.422 132.792 312.962 132.792C314.13 132.792 315.228 132.895 316.258 133.101C317.357 133.307 318.215 133.547 318.833 133.822L316.052 145.358C315.228 145.015 314.301 144.74 313.271 144.534C312.31 144.259 311.349 144.122 310.387 144.122C308.533 144.122 306.748 144.5 305.031 145.255C303.383 145.942 301.907 146.937 300.602 148.242C299.366 149.478 298.371 150.954 297.615 152.671C296.86 154.319 296.482 156.139 296.482 158.13V188H285.77ZM88.441 317L65.472 244.9H77.317L91.222 290.014C91.7713 291.525 92.252 293.31 92.664 295.37C93.076 297.43 93.4537 299.421 93.797 301.344C94.209 303.198 94.518 304.674 94.724 305.773L91.737 305.67C92.767 302.031 93.5567 299.215 94.106 297.224C94.724 295.233 95.2047 293.722 95.548 292.692C95.8913 291.593 96.2003 290.666 96.475 289.911L109.453 257.363H119.444L132.01 289.911C132.697 291.559 133.28 293.207 133.761 294.855C134.31 296.434 134.791 298.048 135.203 299.696C135.615 301.275 136.061 302.958 136.542 304.743L133.864 305.464C134.207 303.61 134.448 302.168 134.585 301.138C134.791 300.039 134.963 299.147 135.1 298.46C135.237 297.773 135.375 297.121 135.512 296.503C135.649 295.816 135.855 294.958 136.13 293.928C136.473 292.898 136.92 291.49 137.469 289.705L151.168 244.9H163.116L140.147 317H132.422L113.367 271.886L114.294 272.298L95.96 317H88.441ZM174.765 317V262.925H185.374V317H174.765ZM179.915 250.977C177.649 250.977 175.898 250.393 174.662 249.226C173.426 248.059 172.808 246.411 172.808 244.282C172.808 242.291 173.426 240.677 174.662 239.441C175.966 238.205 177.717 237.587 179.915 237.587C182.181 237.587 183.932 238.171 185.168 239.338C186.404 240.505 187.022 242.153 187.022 244.282C187.022 246.273 186.369 247.887 185.065 249.123C183.829 250.359 182.112 250.977 179.915 250.977ZM211.363 300.108L210.848 288.572L236.701 262.925H251.018L211.363 300.108ZM201.681 317V240.78H212.29V317H201.681ZM238.143 317L217.749 293.207L225.268 286.306L251.739 317H238.143ZM261.973 317V262.925H272.582V317H261.973ZM267.123 250.977C264.857 250.977 263.106 250.393 261.87 249.226C260.634 248.059 260.016 246.411 260.016 244.282C260.016 242.291 260.634 240.677 261.87 239.441C263.174 238.205 264.925 237.587 267.123 237.587C269.389 237.587 271.14 238.171 272.376 239.338C273.612 240.505 274.23 242.153 274.23 244.282C274.23 246.273 273.577 247.887 272.273 249.123C271.037 250.359 269.32 250.977 267.123 250.977Z" fill="white"/>
<path d="M71.88 371.424V355.564H145.812V371.424H71.88Z" fill="white"/>
<defs>
<linearGradient id="paint0_linear_295_2" x1="-1.29402e-05" y1="566.5" x2="352" y2="185" gradientUnits="userSpaceOnUse">
<stop stop-opacity="0"/>
<stop offset="1" stop-color="#00F0FF"/>
</linearGradient>
</defs>
</svg>
